HIERARCHY
ROOT Hips
{
  OFFSET 196.326 95.9168 97.7182
  CHANNELS 6 Xposition Yposition Zposition Zrotation Xrotation Yrotation
  JOINT LeftUpLeg
  {
    OFFSET 8.64259 1.95398 -2.38835
    CHANNELS 3 Zrotation Xrotation Yrotation
    JOINT LeftLeg
    {
      OFFSET 43.7702 0 0
      CHANNELS 3 Zrotation Xrotation Yrotation
      JOINT LeftFoot
      {
        OFFSET 40.6238 0 0
        CHANNELS 3 Zrotation Xrotation Yrotation
        JOINT LeftToeBase
        {
          OFFSET 12.7242 0 0
          CHANNELS 3 Zrotation Xrotation Yrotation
          End Site
          {
            OFFSET 0 0 0
          }
        }
      }
    }
  }
  JOINT RightUpLeg
  {
    OFFSET -8.2249 1.95398 -2.59336
    CHANNELS 3 Zrotation Xrotation Yrotation
    JOINT RightLeg
    {
      OFFSET 43.5653 0 0
      CHANNELS 3 Zrotation Xrotation Yrotation
      JOINT RightFoot
      {
        OFFSET 40.6238 0 0
        CHANNELS 3 Zrotation Xrotation Yrotation
        JOINT RightToeBase
        {
          OFFSET 12.7242 0 0
          CHANNELS 3 Zrotation Xrotation Yrotation
          End Site
          {
            OFFSET 0 0 0
          }
        }
      }
    }
  }
  JOINT Spine
  {
    OFFSET 0.165834 0.87714 6.61349
    CHANNELS 3 Zrotation Xrotation Yrotation
    JOINT Spine1
    {
      OFFSET 7.38963 1.71661e-005 0
      CHANNELS 3 Zrotation Xrotation Yrotation
      JOINT Spine2
      {
        OFFSET 11.9445 1.14441e-005 0
        CHANNELS 3 Zrotation Xrotation Yrotation
        JOINT Spine3
        {
          OFFSET 14.7254 4.19617e-005 0
          CHANNELS 3 Zrotation Xrotation Yrotation
          JOINT Spine4
          {
            OFFSET 10.9679 0 0
            CHANNELS 3 Zrotation Xrotation Yrotation
            JOINT RightShoulder
            {
              OFFSET 2.46616 -1.6653 3.69651
              CHANNELS 3 Zrotation Xrotation Yrotation
              JOINT RightArm
              {
                OFFSET 13.0012 0 0
                CHANNELS 3 Zrotation Xrotation Yrotation
                JOINT RightForeArm
                {
                  OFFSET 28.7848 1.52588e-005 0
                  CHANNELS 3 Zrotation Xrotation Yrotation
                  JOINT RightHand
                  {
                    OFFSET 26.5688 1.52588e-005 0
                    CHANNELS 3 Zrotation Xrotation Yrotation
                    End Site
                    {
                      OFFSET 0 0 0
                    }
                  }
                }
              }
            }
            JOINT LeftShoulder
            {
              OFFSET 2.38034 -1.29275 -3.75231
              CHANNELS 3 Zrotation Xrotation Yrotation
              JOINT LeftArm
              {
                OFFSET 16.3182 6.10351e-005 0
                CHANNELS 3 Zrotation Xrotation Yrotation
                JOINT LeftForeArm
                {
                  OFFSET 27.0901 0 0
                  CHANNELS 3 Zrotation Xrotation Yrotation
                  JOINT LeftHand
                  {
                    OFFSET 24.5451 1.52588e-005 0
                    CHANNELS 3 Zrotation Xrotation Yrotation
                    End Site
                    {
                      OFFSET 0 0 0
                    }
                  }
                }
              }
            }
            JOINT Neck
            {
              OFFSET 5.0226 -0.0266342 0
              CHANNELS 3 Zrotation Xrotation Yrotation
              JOINT Head
              {
                OFFSET 6.69363 2.86102e-005 0
                CHANNELS 3 Zrotation Xrotation Yrotation
                End Site
                {
                  OFFSET 0 0 0
                }
              }
            }
          }
        }
      }
    }
  }
}
MOTION
Frames:	14
Frame Time:	0.0416667
25.6988 89.998 -274.23 24.9991 -74.5374 19.787 -172.379 4.02662 84.4205 -21.42 25.6759 -2.49441 61.2357 17.2559 28.1666 60.5373 29.5945 -11.5406 -170.994 54.2445 78.5432 136.58 8.66032 -173.608 47.6116 -9.05167 -9.87946 36.3246 0.380088 -23.6397 -0.813338 7.48757 -89.0627 11.9058 -1.17579 1.9956 0.233819 -1.08684 2.0454 -22.2974 -1.72114 1.5501 -2.28482 -1.72113 1.5501 83.5402 -46.8827 -111.725 35.0751 -20.9395 15.8781 -21.4397 -2.29622 -77.3661 -13.0087 0.363101 -9.59686 -98.3291 -41.5267 63.2551 -24.1852 -16.7481 33.4577 20.9978 -12.6939 -125.273 22.9376 -17.3451 -72.4779 18.5419 0.900189 -3.15525 6.14211 2.05701 2.11527 
25.6953 89.1977 -275.762 25.5012 -74.3022 20.244 -173.477 8.30131 83.4932 -28.0633 22.5202 -1.8635 61.7423 19.3679 29.4156 62.7447 31.4855 -11.6398 -169.687 55.3626 78.0925 132.787 6.70506 -172.965 47.1007 -9.18264 -10.5729 34.4699 0.619039 -21.4395 -1.03498 7.59766 -89.0034 11.6901 -1.59102 2.15272 0.0181897 -1.49476 2.2206 -22.5162 -2.16437 1.57512 -2.5035 -2.16436 1.57513 82.3872 -48.8191 -112.777 35.0036 -18.5754 19.9713 -22.1939 -2.75051 -77.4922 -17.3596 -0.806905 -0.33505 -100.376 -42.2259 60.329 -22.551 -16.4157 27.1795 26.3491 -13.6084 -117.647 26.0562 -18.2728 -68.9722 20.385 1.60899 -3.55237 5.65707 2.91991 2.24547 
25.8609 88.9763 -277.699 25.5986 -73.4391 21.484 -174.037 13.3794 83.613 -33.8773 21.3877 -1.38079 60.1281 16.9915 27.9836 63.8581 33.5406 -9.1776 -173.129 56.0487 80.4472 128.031 8.62728 -174.784 42.8836 -8.72229 -9.72008 33.4295 0.561998 -22.6081 -1.25116 7.54626 -89.1075 11.7988 -2.06857 2.00022 0.127784 -1.97855 2.0893 -22.4146 -2.57403 1.28595 -2.402 -2.57402 1.28596 80.7619 -50.3606 -114.625 34.9589 -17.8989 24.41 -19.2456 -5.27414 -73.4181 -32.5097 -2.17279 3.71443 -100.545 -41.3796 59.6922 -23.1494 -12.6116 20.0665 34.7812 -13.3876 -107.082 31.1413 -18.3578 -60.7674 20.7775 2.39555 -4.01936 5.29101 3.82883 2.22272 
26.1498 88.9217 -276.694 13.0357 -74.1218 12.2287 -172.872 14.7887 86.5494 -36.8294 20.8363 -1.34328 60.7104 17.2068 28.0039 64.3571 34.3422 -8.38265 179.157 55.7561 87.2702 124.614 27.0418 -179.392 34.4315 -12.5629 -10.3178 27.5971 9.22766 -36.8181 -1.04979 7.41069 -89.4123 12.0634 -1.80936 1.37109 0.392895 -1.74729 1.44937 -22.1501 -2.13775 0.763781 -2.13744 -2.13775 0.763773 80.218 -51.0218 -115.17 36.4896 -18.4338 30.4556 -16.6318 -4.66975 -72.3683 -30.316 -1.85045 2.64261 -99.4523 -40.0428 60.8338 -25.0165 -8.13785 15.53 29.5427 -8.61482 -102.053 32.8634 -13.7074 -45.886 19.9293 3.76543 -4.15997 4.3541 5.15053 2.2345 
26.2282 88.9515 -272.27 -8.35571 -75.4584 -6.94862 -170.806 11.5691 89.1705 -37.4755 20.8664 -2.18691 60.3838 13.4122 24.5048 62.3637 35.9407 -0.837754 177.104 54.0409 91.1911 129.187 59.447 175.153 20.8981 -17.7965 -18.582 28.911 67.2541 -176.458 -0.663152 7.38638 -89.6062 12.1055 -1.13207 0.910492 0.434708 -1.0909 0.959426 -22.1034 -1.35337 0.528131 -2.09071 -1.35336 0.528129 80.9287 -50.7127 -114.245 38.7871 -19.2205 36.1869 -16.6764 -4.30403 -72.5563 -30.1388 -1.71282 2.14356 -98.0191 -39.1822 62.7777 -27.3306 -3.50234 12.3917 18.2907 -6.36407 -104.759 32.4486 -2.06374 -10.6569 18.6748 5.24633 -4.30306 4.25345 6.63918 2.80279 
26.1961 89.5011 -264.985 -14.338 -75.4476 -11.3162 -170.722 5.91102 91.9354 -33.0885 21.1107 -1.58324 55.5449 4.69392 16.281 70.0957 43.5216 -1.26493 173.126 55.6755 98.9153 -61.9524 49.5973 4.43082 32.3527 -3.41961 -2.85093 62.2654 26.8954 68.0112 -0.708251 7.23329 -89.829 12.4109 -1.32596 0.493416 0.740533 -1.30294 0.551298 -21.8 -1.41294 0.0720272 -1.78737 -1.41293 0.0720295 81.3121 -50.4728 -113.77 40.7478 -19.1868 41.9385 -18.2538 -3.44644 -74.2555 -28.1414 -1.82405 3.09577 -96.5922 -37.9114 64.5978 -28.8135 -0.433695 11.5535 13.5786 -7.29702 -111.662 33.6904 3.78096 7.51935 17.7771 6.51395 -5.02061 3.51414 8.14061 4.04879 
26.2108 89.9509 -257.082 -13.732 -75.5016 -10.506 -171.538 0.19067 93.2389 -26.7018 21.1611 -0.49906 45.8314 -5.57383 6.03631 74.0116 49.5584 1.95347 174.832 51.5414 98.0784 -49.4128 14.9428 3.20011 64.4589 -1.46547 -0.658989 41.9476 -0.964124 18.918 -0.872288 7.09895 -89.9859 12.6789 -1.72583 0.231035 1.0091 -1.71398 0.306781 -21.535 -1.71545 -0.298477 -1.52238 -1.71545 -0.29849 81.3892 -49.5394 -114.007 41.7931 -16.5455 46.2287 -18.3528 -3.08111 -74.7046 -27.0744 -1.62803 2.52751 -96.2829 -37.7095 65.0319 -28.695 0.36929 11.4659 13.7 -9.14099 -117.86 34.0317 3.61156 6.85211 17.1099 7.43268 -5.00879 2.95959 9.06472 5.01994 
25.8652 90.3882 -249.322 -13.3194 -76.8211 -10.0928 -172.123 -4.03165 93.671 -25.4342 23.555 0.258698 37.6331 -11.623 2.43193 51.826 26.2693 3.35821 177.897 48.8913 95.4825 -37.0397 17.7685 3.99529 57.5485 -0.279074 0.0407023 44.5128 2.61364 21.2719 -1.01713 7.15279 -90.0873 12.5707 -2.06213 0.0658109 0.901394 -2.05724 0.156533 -21.6462 -1.98654 -0.557245 -1.63357 -1.98654 -0.557247 81.5384 -48.8488 -114.048 40.9603 -14.0846 47.6466 -17.3614 -3.03181 -74.6018 -25.5388 -1.40543 1.83718 -96.3502 -37.9159 65.0034 -28.7356 1.674 12.1369 14.5044 -11.4488 -122.498 32.2751 3.39205 6.76399 17.5037 8.13385 -4.7837 1.66598 9.63008 4.98269 
25.7057 90.2032 -241.619 -12.6711 -76.3579 -11.5472 -173.759 -3.31715 91.2515 -30.4382 23.5638 0.372319 36.2958 -12.4958 3.69528 36.4475 8.22706 -9.60477 -179.625 48.8346 92.6557 -31.8585 14.7185 2.41288 54.6132 0.723826 0.796683 46.9594 2.83409 17.4081 -1.05341 6.97177 -89.9406 12.9358 -2.06298 0.368764 1.2664 -2.04475 0.459227 -21.2818 -2.0784 -0.268589 -1.26917 -2.07839 -0.268574 82.5749 -48.2842 -112.692 40.0583 -11.8511 46.6945 -15.8104 -2.43255 -74.2406 -25.1396 -1.12856 0.555366 -96.1968 -37.6486 65.1513 -29.8262 4.24068 12.5357 16.1115 -13.5921 -123.935 32.2898 3.57639 7.34322 17.1975 8.30311 -4.00937 1.433 9.55143 4.95958 
25.5983 89.8651 -234.388 -13.2249 -77.7253 -13.8734 -174.197 -0.556922 89.9113 -40.2952 19.9292 0.166203 39.6066 -9.78867 5.34849 37.1015 8.88306 -8.03806 179.778 48.2628 91.9051 -36.7703 13.6885 2.13049 58.191 0.239304 0.403976 38.9111 1.12882 19.2473 -1.02253 7.01874 -89.852 12.8427 -1.95957 0.530797 1.17307 -1.9343 0.616556 -21.374 -2.02846 -0.0829122 -1.36131 -2.02847 -0.0829176 83.1115 -47.7117 -112.083 38.4382 -10.0933 44.5825 -15.5423 -2.22778 -74.2626 -24.7382 -1.12183 0.583582 -96.8815 -37.9894 64.1489 -31.2372 6.02138 13.3194 16.106 -13.3962 -121.651 32.0141 3.27054 6.42857 15.6888 8.07412 -2.04945 2.5253 8.75557 4.32292 
25.6535 89.243 -227.386 -16.9547 -79.8183 -18.0293 -173.532 3.56722 88.6774 -51.128 16.8236 -0.131832 40.9128 -8.6843 6.31824 45.1654 18.1703 0.166185 177.378 46.1988 93.4796 -46.7548 16.1817 2.11797 67.8786 -2.58112 -1.38073 28.9816 -1.25528 20.6956 -0.892498 7.19767 -89.8862 12.4828 -1.71899 0.426017 0.812889 -1.69857 0.501275 -21.7314 -1.76753 -0.110457 -1.71872 -1.76754 -0.110477 83.162 -47.981 -111.907 36.0007 -9.51343 41.1206 -17.2819 -2.62156 -74.1741 -24.9949 -1.1343 0.667301 -97.6938 -38.527 63.0321 -32.9021 7.27184 14.0952 14.1529 -10.9683 -115.493 29.253 2.50206 4.80787 13.6457 7.904 -0.141262 4.56226 8.09148 3.55421 
25.8892 88.7619 -220.73 -20.6309 -82.4038 -20.8058 -173.06 9.30029 89.6184 -61.6025 12.8126 0.171082 44.1044 -5.76862 8.25167 50.2923 24.0141 1.28586 176.486 42.4547 94.7745 -53.2882 15.8685 1.06924 71.0989 -3.97295 -2.05997 34.5104 0.0847541 18.8722 -0.808649 7.45315 -90.0093 11.9696 -1.61216 0.156372 0.299644 -1.60371 0.227179 -22.2438 -1.58462 -0.335517 -2.23116 -1.58462 -0.335521 82.1673 -49.2111 -112.965 32.5225 -9.74062 36.0316 -17.9644 -3.38215 -73.6867 -24.769 -1.23197 1.22854 -98.6071 -39.1205 61.7943 -34.7969 7.0683 15.4481 13.7062 -8.05856 -107.384 32.5179 3.08867 5.70375 11.4271 7.58478 -0.0501954 6.76296 7.92328 4.19753 
25.6232 88.37 -213.762 -58.592 -78.9851 -53.813 -168.067 16.6126 94.3549 -69.2167 9.78919 -0.540421 48.0852 -2.46779 10.568 51.5812 26.1056 3.37462 178.825 37.6678 101.567 -54.5147 17.4401 -0.50801 73.1158 -5.11887 -2.51493 40.5054 1.51879 19.4996 0.148586 7.63977 -90.5488 11.5932 0.0386291 -1.0975 -0.0781699 -0.00971253 -1.09813 -22.6099 0.366663 -1.03516 -2.59727 0.366671 -1.03516 81.5026 -49.5315 -113.841 28.9484 -10.5071 29.0372 -17.6554 -4.05779 -72.2273 -24.7547 -1.56479 2.83569 -100.176 -41.0452 60.1256 -35.5886 6.53048 16.4344 15.556 -5.52477 -97.3732 30.5266 3.23044 6.84464 11.3954 7.41196 1.25519 7.09531 7.38541 3.60134 
25.4591 87.9934 -206.995 -67.8166 -78.2762 -62.1557 -166.943 23.7378 95.0072 -73.2512 6.8036 -0.377569 52.4576 0.881148 12.0573 56.1747 30.7245 2.11757 179.79 31.2218 102.712 -54.1142 20.5014 -1.27417 80.1678 -8.20106 -3.51265 42.7216 2.13207 20.9339 0.486507 7.81125 -90.6532 11.2536 0.664258 -1.36607 -0.417961 0.603484 -1.39398 -22.9505 1.04408 -1.10333 -2.93783 1.04408 -1.10333 81.4225 -48.5212 -114.349 27.6207 -11.5237 21.7887 -20.3886 -4.89335 -71.3802 -24.9969 -2.09928 5.47958 -100.338 -41.9629 60.2758 -37.0885 7.61711 16.8517 16.6551 -2.23782 -86.8177 33.6143 3.35244 6.24606 12.2667 6.90042 1.68105 6.02412 6.74521 3.73614 
